<?xml version="1.0" encoding="UTF-8" standalone="no"?>
<!-- Created with Inkscape (http://www.inkscape.org/) -->

<svg
   xmlns:dc="http://purl.org/dc/elements/1.1/"
   xmlns:cc="http://creativecommons.org/ns#"
   xmlns:rdf="http://www.w3.org/1999/02/22-rdf-syntax-ns#"
   xmlns:svg="http://www.w3.org/2000/svg"
   xmlns="http://www.w3.org/2000/svg"
   xmlns:sodipodi="http://sodipodi.sourceforge.net/DTD/sodipodi-0.dtd"
   xmlns:inkscape="http://www.inkscape.org/namespaces/inkscape"
   width="512"
   height="512"
   viewBox="0 0 512 512"
   id="svg2"
   version="1.1"
   inkscape:version="0.92.2 5c3e80d, 2017-08-06"
   sodipodi:docname="logo.svg"
   inkscape:export-filename="/home/icaroperseo/Documentos/WebExtensions/BehindTheOverlayRevival/design/logo.png"
   inkscape:export-xdpi="96"
   inkscape:export-ydpi="96">
  <defs
     id="defs4">
    <inkscape:path-effect
       is_visible="true"
       id="path-effect4604"
       effect="spiro" />
    <inkscape:path-effect
       effect="spiro"
       id="path-effect4592"
       is_visible="true" />
    <clipPath
       clipPathUnits="userSpaceOnUse"
       id="clipPath4291">
      <circle
         r="159.63525"
         cy="846.737"
         cx="464.4296"
         id="circle4293"
         style="fill:#fefefe;fill-opacity:1;fill-rule:nonzero;stroke:none;stroke-width:0.30000001;stroke-miterlimit:4;stroke-dasharray:none;stroke-dashoffset:0;stroke-opacity:1" />
    </clipPath>
  </defs>
  <sodipodi:namedview
     id="base"
     pagecolor="#d1d3d8"
     bordercolor="#666666"
     borderopacity="1.0"
     inkscape:pageopacity="0"
     inkscape:pageshadow="2"
     inkscape:zoom="0.45731162"
     inkscape:cx="-212.47199"
     inkscape:cy="137.14826"
     inkscape:document-units="px"
     inkscape:current-layer="layer1"
     showgrid="false"
     units="px"
     inkscape:window-width="1366"
     inkscape:window-height="699"
     inkscape:window-x="0"
     inkscape:window-y="0"
     inkscape:window-maximized="1" />
  <metadata
     id="metadata7">
    <rdf:RDF>
      <cc:Work
         rdf:about="">
        <dc:format>image/svg+xml</dc:format>
        <dc:type
           rdf:resource="http://purl.org/dc/dcmitype/StillImage" />
        <dc:title />
      </cc:Work>
    </rdf:RDF>
  </metadata>
  <g
     inkscape:label="Capa 1"
     inkscape:groupmode="layer"
     id="layer1"
     transform="translate(0,-540.3622)">
    <rect
       style="fill:#3c8ad4;fill-opacity:1;fill-rule:nonzero;stroke:none;stroke-width:2;stroke-miterlimit:4;stroke-dasharray:none;stroke-dashoffset:0;stroke-opacity:1"
       id="rect4171"
       width="512"
       height="512"
       x="0"
       y="540.36218"
       ry="49.965401" />
    <g
       id="g4153"
       transform="matrix(0.81626674,0,0,0.84900641,45.39999,118.54427)">
      <path
         inkscape:connector-curvature="0"
         id="circle4302-3"
         d="M 258.00272,718.498 A 137.8682,137.8682 0 0 0 120.13579,856.36494 137.8682,137.8682 0 0 0 258.00272,994.2342 137.8682,137.8682 0 0 0 395.87203,856.36494 137.8682,137.8682 0 0 0 258.00272,718.498 Z m -45.25211,56.95997 45.25211,45.25482 45.25448,-45.25482 35.65469,35.65501 -45.25195,45.25195 45.25195,45.25448 -35.65469,35.65467 -45.25448,-45.25194 -45.25211,45.25194 -35.65468,-35.65467 45.25466,-45.25448 -45.25466,-45.25195 z"
         style="fill:#fefefe;fill-opacity:1;fill-rule:nonzero;stroke:#fefefe;stroke-width:0.3527464;stroke-miterlimit:4;stroke-dasharray:none;stroke-dashoffset:0;stroke-opacity:1" />
      <path
         id="path4596-6"
         d="m 26.63252,588.5528 c -9.88736,0 -17.8476103,10.30578 -17.8476103,23.10669 v 400.11201 c 0,12.8009 7.9602503,23.1065 17.8476103,23.1065 h 462.74277 c 9.88736,0 17.84762,-10.3056 17.84762,-23.1065 v -400.112 c 0,-12.80092 -7.96026,-23.10669 -17.84762,-23.10669 h -71.26657 v 47.37971 c 0,12.64984 -7.86643,22.82953 -17.63737,22.82953 h -4.73407 c -9.77099,0 -17.6374,-10.17969 -17.6374,-22.82953 V 588.55281 H 137.90793 v 47.37971 c 0,12.64984 -7.86642,22.82953 -17.63735,22.82953 h -4.73409 c -9.77096,0 -17.63738,-10.17969 -17.63738,-22.82953 V 588.55281 H 26.63252 Z M 46.41357,697.08191 H 469.598 c 10.8761,0 19.63088,11.33452 19.63088,25.41541 v 263.66931 c 0,14.08077 -8.75478,25.41527 -19.63088,25.41527 H 46.41357 c -10.8761,0 -19.63462,-11.3345 -19.63462,-25.41527 V 722.49732 c 0,-14.08089 8.75852,-25.41541 19.63462,-25.41541 z"
         style="fill:#fefefe;fill-opacity:1;fill-rule:nonzero;stroke:none;stroke-width:10;stroke-miterlimit:4;stroke-dasharray:none;stroke-dashoffset:0;stroke-opacity:1"
         inkscape:connector-curvature="0" />
      <rect
         ry="14.271836"
         y="561.85419"
         x="105.54247"
         height="85.631035"
         width="25.00498"
         id="rect4598-7"
         style="fill:#fefefe;fill-opacity:1;fill-rule:nonzero;stroke:none;stroke-width:4.98864317;stroke-miterlimit:4;stroke-dasharray:none;stroke-dashoffset:0;stroke-opacity:1" />
      <rect
         style="fill:#fefefe;fill-opacity:1;fill-rule:nonzero;stroke:none;stroke-width:4.98864317;stroke-miterlimit:4;stroke-dasharray:none;stroke-dashoffset:0;stroke-opacity:1"
         id="rect4600-5"
         width="25.00498"
         height="85.631035"
         x="386.11572"
         y="561.85419"
         ry="14.271836" />
    </g>
  </g>
</svg>
