<?xml version="1.0" encoding="UTF-8" standalone="no"?>
<!-- Created with Inkscape (http://www.inkscape.org/) -->

<svg
   xmlns:dc="http://purl.org/dc/elements/1.1/"
   xmlns:cc="http://creativecommons.org/ns#"
   xmlns:rdf="http://www.w3.org/1999/02/22-rdf-syntax-ns#"
   xmlns:svg="http://www.w3.org/2000/svg"
   xmlns="http://www.w3.org/2000/svg"
   xmlns:sodipodi="http://sodipodi.sourceforge.net/DTD/sodipodi-0.dtd"
   xmlns:inkscape="http://www.inkscape.org/namespaces/inkscape"
   width="512"
   height="512"
   viewBox="0 0 512 512"
   id="svg2"
   version="1.1"
   inkscape:version="0.91 r13725"
   sodipodi:docname="logo.svg"
   inkscape:export-filename="/home/icaroperseo/Documentos/Proyectos/Add-ons/OverlayKiller/design/logo.png"
   inkscape:export-xdpi="90"
   inkscape:export-ydpi="90">
  <defs
     id="defs4">
    <inkscape:path-effect
       is_visible="true"
       id="path-effect4604"
       effect="spiro" />
    <inkscape:path-effect
       effect="spiro"
       id="path-effect4592"
       is_visible="true" />
    <clipPath
       clipPathUnits="userSpaceOnUse"
       id="clipPath4291">
      <circle
         r="159.63525"
         cy="846.737"
         cx="464.4296"
         id="circle4293"
         style="fill:#fefefe;fill-opacity:1;fill-rule:nonzero;stroke:none;stroke-width:0.30000001;stroke-miterlimit:4;stroke-dasharray:none;stroke-dashoffset:0;stroke-opacity:1" />
    </clipPath>
  </defs>
  <sodipodi:namedview
     id="base"
     pagecolor="#d1d3d8"
     bordercolor="#666666"
     borderopacity="1.0"
     inkscape:pageopacity="0"
     inkscape:pageshadow="2"
     inkscape:zoom="0.45301757"
     inkscape:cx="140.6739"
     inkscape:cy="262.87164"
     inkscape:document-units="px"
     inkscape:current-layer="layer1"
     showgrid="false"
     units="px"
     inkscape:window-width="1366"
     inkscape:window-height="715"
     inkscape:window-x="0"
     inkscape:window-y="0"
     inkscape:window-maximized="1" />
  <metadata
     id="metadata7">
    <rdf:RDF>
      <cc:Work
         rdf:about="">
        <dc:format>image/svg+xml</dc:format>
        <dc:type
           rdf:resource="http://purl.org/dc/dcmitype/StillImage" />
        <dc:title />
      </cc:Work>
    </rdf:RDF>
  </metadata>
  <g
     inkscape:label="Capa 1"
     inkscape:groupmode="layer"
     id="layer1"
     transform="translate(0,-540.3622)">
    <path
       style="fill:#6b6b6b;fill-opacity:1;fill-rule:nonzero;stroke:#fefefe;stroke-width:0.3527464;stroke-miterlimit:4;stroke-dasharray:none;stroke-dashoffset:0;stroke-opacity:1"
       d="M 255.99881,716.4941 A 137.8682,137.8682 0 0 0 118.13188,854.36104 137.8682,137.8682 0 0 0 255.99881,992.2303 137.8682,137.8682 0 0 0 393.86812,854.36104 137.8682,137.8682 0 0 0 255.99881,716.4941 Z m -45.25211,56.95998 45.25211,45.25481 45.25448,-45.25481 35.65469,35.65501 -45.25195,45.25195 45.25195,45.25448 -35.65469,35.65467 -45.25448,-45.25194 -45.25211,45.25194 -35.65468,-35.65467 45.25466,-45.25448 -45.25466,-45.25195 35.65468,-35.65501 z"
       id="circle4302"
       inkscape:connector-curvature="0" />
    <path
       inkscape:connector-curvature="0"
       style="fill:#6b6b6b;fill-opacity:1;fill-rule:nonzero;stroke:none;stroke-width:10;stroke-miterlimit:4;stroke-dasharray:none;stroke-dashoffset:0;stroke-opacity:1"
       d="m 24.628606,586.54891 c -9.887353,0 -17.8476016,10.30577 -17.8476016,23.10669 l 0,400.112 c 0,12.8009 7.9602486,23.1065 17.8476016,23.1065 l 462.742774,0 c 9.88736,0 17.84762,-10.3056 17.84762,-23.1065 l 0,-400.112 c 0,-12.80092 -7.96026,-23.10669 -17.84762,-23.10669 l -71.26657,0 0,47.37971 c 0,12.64984 -7.86643,22.82953 -17.63737,22.82953 l -4.73407,0 c -9.77099,0 -17.6374,-10.17969 -17.6374,-22.82953 l 0,-47.37971 -240.19195,0 0,47.37971 c 0,12.64984 -7.86642,22.82953 -17.63735,22.82953 l -4.73409,0 c -9.77096,0 -17.637384,-10.17969 -17.637384,-22.82953 l 0,-47.37971 -71.26659,0 z m 19.781057,108.52911 423.184427,0 c 10.8761,0 19.63088,11.33452 19.63088,25.41541 l 0,263.66931 c 0,14.08076 -8.75478,25.41526 -19.63088,25.41526 l -423.184427,0 c -10.876103,0 -19.634626,-11.3345 -19.634626,-25.41526 l 0,-263.66931 c 0,-14.08089 8.758523,-25.41541 19.634626,-25.41541 z"
       id="path4596" />
    <rect
       style="fill:#6b6b6b;fill-opacity:1;fill-rule:nonzero;stroke:none;stroke-width:4.98864317;stroke-miterlimit:4;stroke-dasharray:none;stroke-dashoffset:0;stroke-opacity:1"
       id="rect4598"
       width="25.00498"
       height="85.631035"
       x="103.53856"
       y="559.85028"
       ry="14.271836" />
    <rect
       ry="14.271836"
       y="559.85028"
       x="384.11182"
       height="85.631035"
       width="25.00498"
       id="rect4600"
       style="fill:#6b6b6b;fill-opacity:1;fill-rule:nonzero;stroke:none;stroke-width:4.98864317;stroke-miterlimit:4;stroke-dasharray:none;stroke-dashoffset:0;stroke-opacity:1" />
  </g>
</svg>
